HIERARCHY
ROOT Hips
{
    OFFSET 0.000000 0.000000 0.000000
    CHANNELS 6 Xposition Yposition Zposition Zrotation Xrotation Yrotation
    JOINT Spine
    {
        OFFSET -0.000000 14.517291 0.000000
        CHANNELS 3 Zrotation Xrotation Yrotation
        JOINT Spine1
        {
            OFFSET -0.000000 37.558300 0.000000
            CHANNELS 3 Zrotation Xrotation Yrotation
            JOINT Neck
            {
                OFFSET -0.000000 37.404057 3.400369
                CHANNELS 3 Zrotation Xrotation Yrotation
                JOINT Head
                {
                    OFFSET -0.000000 24.785618 -3.540803
                    CHANNELS 3 Zrotation Xrotation Yrotation
                    End Site
                    {
                        OFFSET -0.000000 35.408028 0.000000
                    }
                }
            }
            JOINT LeftShoulder
            {
                OFFSET 6.992933 33.973492 -0.192664
                CHANNELS 3 Zrotation Xrotation Yrotation
                JOINT LeftArm
                {
                    OFFSET 21.527611 0.000000 0.000000
                    CHANNELS 3 Zrotation Xrotation Yrotation
                    JOINT LeftForeArm
                    {
                        OFFSET 56.353916 0.000000 0.000000
                        CHANNELS 3 Zrotation Xrotation Yrotation
                        JOINT LeftHand
                        {
                            OFFSET 47.774071 0.000000 0.000000
                            CHANNELS 3 Zrotation Xrotation Yrotation
                            End Site
                            {
                                OFFSET 26.556021 0.000000 0.000000
                            }
                        }
                    }
                }
            }
            JOINT RightShoulder
            {
                OFFSET -7.065357 33.973492 -0.192664
                CHANNELS 3 Zrotation Xrotation Yrotation
                JOINT RightArm
                {
                    OFFSET -21.527611 0.000000 0.000000
                    CHANNELS 3 Zrotation Xrotation Yrotation
                    JOINT RightForeArm
                    {
                        OFFSET -56.353916 0.000000 0.000000
                        CHANNELS 3 Zrotation Xrotation Yrotation
                        JOINT RightHand
                        {
                            OFFSET -47.774071 0.000000 0.000000
                            CHANNELS 3 Zrotation Xrotation Yrotation
                            End Site
                            {
                                OFFSET -26.556021 0.000000 0.000000
                            }
                        }
                    }
                }
            }
        }
    }
    JOINT LeftUpLeg
    {
        OFFSET 17.704014 0.000000 0.000000
        CHANNELS 3 Zrotation Xrotation Yrotation
        JOINT LeftLeg
        {
            OFFSET -0.000000 -81.181816 0.000000
            CHANNELS 3 Zrotation Xrotation Yrotation
            JOINT LeftFoot
            {
                OFFSET -0.000000 -62.821102 0.000000
                CHANNELS 3 Zrotation Xrotation Yrotation
                JOINT LeftToeBase
                {
                    OFFSET -0.000000 -11.507608 26.556021
                    CHANNELS 3 Zrotation Xrotation Yrotation
                    End Site
                    {
                        OFFSET -0.000000 0.000000 7.081605
                    }
                }
            }
        }
    }
    JOINT RightUpLeg
    {
        OFFSET -17.704014 0.000000 0.000000
        CHANNELS 3 Zrotation Xrotation Yrotation
        JOINT RightLeg
        {
            OFFSET -0.000000 -81.181816 0.000000
            CHANNELS 3 Zrotation Xrotation Yrotation
            JOINT RightFoot
            {
                OFFSET -0.000000 -62.821102 0.000000
                CHANNELS 3 Zrotation Xrotation Yrotation
                JOINT RightToeBase
                {
                    OFFSET -0.000000 -11.507608 26.556021
                    CHANNELS 3 Zrotation Xrotation Yrotation
                    End Site
                    {
                        OFFSET -0.000000 0.000000 7.081605
                    }
                }
            }
        }
    }
}
MOTION
Frames:    12
Frame Time:    0.008333
-7.528824    155.026794    -113.780228    -2.104483    -2.042688    47.991043    -1.306471    -0.854430    -3.546135    -4.957321    3.053507    -1.047863    5.657824    4.391939    -21.302927    14.834633    -3.085988    -20.403753    5.889662    9.799413    -17.830521    -36.090527    23.241440    -44.340561    -9.236616    -6.727403    -118.173347    4.759767    -21.920973    -4.306324    -14.619026    -3.910410    -7.953496    19.112206    -21.655899    48.861603    -14.538824    -13.189291    49.833183    1.064826    -6.189743    32.168655    23.776455    -6.351634    16.979540    -16.488352    32.714191    -9.371181    1.266987    -19.820721    47.405178    0.000000    0.000000    0.000000    -14.570759    -24.701809    -18.731993    14.708284    32.014145    -16.587957    -3.331339    0.061492    -13.815275    0.000000    0.000000    0.000000    
-7.641000    155.134140    -113.689819    -2.149076    -2.007232    47.986633    -1.347182    -0.827515    -3.556468    -4.929657    3.016988    -1.053591    5.701837    4.374945    -21.309002    14.837552    -3.091775    -20.414701    5.922811    9.813436    -17.883635    -36.086578    23.287354    -44.336849    -9.240570    -6.712409    -118.174301    4.752510    -21.913124    -4.302880    -14.559212    -3.916067    -7.948569    19.024099    -21.668936    48.826679    -14.545522    -13.202186    49.839844    1.024608    -6.209681    32.230125    23.720383    -6.322496    16.865355    -16.357573    32.449570    -9.388821    1.344397    -19.580906    47.356293    0.000000    0.000000    0.000000    -14.422755    -24.702444    -18.650061    14.607862    31.812328    -16.477154    -3.430593    0.207200    -13.918992    0.000000    0.000000    0.000000    
-7.756807    155.247360    -113.607147    -2.219758    -1.962699    47.978588    -1.349081    -0.821511    -3.580674    -4.915572    2.984946    -1.063436    5.652288    4.372306    -21.326118    14.959240    -3.094074    -20.407425    5.931386    9.835206    -17.904713    -36.039200    23.337385    -44.341400    -9.208480    -6.726228    -118.182838    4.666321    -21.877401    -4.384700    -14.554248    -3.951800    -7.923848    18.943165    -21.608328    48.764565    -14.625421    -13.282965    49.837765    1.107104    -6.231808    32.167839    23.671171    -6.311399    16.747742    -16.238390    32.164341    -9.404804    1.550101    -19.262897    47.277832    0.000000    0.000000    0.000000    -14.262031    -24.721331    -18.568499    14.498591    31.589640    -16.352818    -3.541137    0.369732    -14.020000    0.000000    0.000000    0.000000    
-7.872621    155.370499    -113.532639    -2.319355    -1.894567    47.960434    -1.343246    -0.846238    -3.587546    -4.896514    2.950649    -1.067643    5.659323    4.384278    -21.344410    14.979894    -3.162809    -20.414627    5.924359    9.831803    -17.929005    -36.020874    23.359140    -44.335354    -9.211183    -6.659972    -118.193672    4.590767    -21.820963    -4.404800    -14.590739    -3.983864    -7.962201    18.946918    -21.578083    48.769524    -14.637265    -13.300557    49.841026    1.094993    -6.247450    32.134468    23.602186    -6.334193    16.613857    -16.082256    31.881506    -9.436316    1.723682    -18.996172    47.167824    0.000000    0.000000    0.000000    -14.092960    -24.769138    -18.465336    14.391753    31.328159    -16.270435    -3.621102    0.554577    -14.111563    0.000000    0.000000    0.000000    
-8.003785    155.504364    -113.441376    -2.411517    -1.847996    47.933456    -1.310332    -0.834923    -3.586949    -4.947505    2.892143    -1.068746    5.709887    4.357508    -21.351521    15.002553    -3.171621    -20.424307    6.008713    9.837051    -17.965719    -36.020424    23.395887    -44.345654    -9.218727    -6.614502    -118.214317    4.639760    -21.798534    -4.409567    -14.551078    -3.998254    -7.963475    18.975616    -21.673962    48.761433    -14.546760    -13.204613    49.875023    1.079064    -6.192075    32.069576    23.551414    -6.326505    16.496096    -15.929868    31.582684    -9.489015    1.888521    -18.731058    47.060001    0.000000    0.000000    0.000000    -13.881905    -24.796282    -18.397974    14.219538    31.067825    -16.105999    -3.731967    0.752759    -14.198075    0.000000    0.000000    0.000000    
-8.122132    155.636963    -113.354897    -2.489334    -1.810632    47.899944    -1.285252    -0.812426    -3.582009    -4.952347    2.849731    -1.068922    5.704640    4.291638    -21.358902    15.015924    -3.142614    -20.436520    6.017175    9.806799    -17.995083    -36.002728    23.439568    -44.335602    -9.246453    -6.555847    -118.248940    4.613174    -21.796463    -4.395631    -14.572959    -4.020494    -7.984795    19.005926    -21.728548    48.771069    -14.483886    -13.155741    49.874287    1.007099    -6.191963    32.109219    23.494133    -6.288267    16.301659    -15.830910    31.255930    -9.492063    2.091163    -18.464436    46.920082    0.000000    0.000000    0.000000    -13.672059    -24.794748    -18.332842    14.038919    30.786127    -15.932951    -3.809604    0.952491    -14.276206    0.000000    0.000000    0.000000    
-8.247793    155.778229    -113.269089    -2.589477    -1.752158    47.854958    -1.269164    -0.822079    -3.574624    -4.953563    2.799525    -1.068677    5.717545    4.316375    -21.373865    15.064762    -3.192254    -20.438053    6.028972    9.822117    -18.013037    -35.957279    23.439966    -44.360413    -9.251101    -6.491609    -118.270363    4.651992    -21.750742    -4.383253    -14.557069    -3.982119    -7.996830    18.985769    -21.761835    48.785660    -14.502267    -13.209603    49.861031    1.071807    -6.221212    32.158394    23.418217    -6.226056    16.150444    -15.667806    30.936457    -9.544525    2.297262    -18.309925    46.660458    0.000000    0.000000    0.000000    -13.460476    -24.829433    -18.233286    13.870058    30.507229    -15.729404    -3.846204    1.160628    -14.421519    0.000000    0.000000    0.000000    
-8.379677    155.930222    -113.184273    -2.713171    -1.693422    47.796455    -1.230837    -0.850293    -3.574564    -4.966039    2.768680    -1.069690    5.708889    4.268075    -21.358301    15.127676    -3.183987    -20.414118    6.058082    9.825072    -18.005295    -35.885857    23.517052    -44.402042    -9.206719    -6.552018    -118.312347    4.665318    -21.749228    -4.388290    -14.530195    -4.030246    -7.980601    18.915096    -21.716143    48.758213    -14.548624    -13.283929    49.841019    1.116360    -6.265922    32.118740    23.358768    -6.229014    16.057705    -15.462415    30.633242    -9.689410    2.471995    -18.134007    46.490910    0.000000    0.000000    0.000000    -13.227206    -24.873106    -18.111383    13.713011    30.190773    -15.582414    -3.884769    1.393423    -14.525270    0.000000    0.000000    0.000000    
-8.501750    156.078812    -113.127922    -2.834335    -1.601398    47.738712    -1.193448    -0.883509    -3.562079    -4.993537    2.710573    -1.067363    5.686434    4.284790    -21.364777    15.218977    -3.230874    -20.396597    6.059180    9.830326    -18.031733    -35.859684    23.506720    -44.417068    -9.225093    -6.492354    -118.325272    4.664506    -21.727467    -4.415353    -14.544363    -4.064987    -7.985645    18.909626    -21.698635    48.746994    -14.525814    -13.304413    49.837578    1.054172    -6.316267    32.076931    23.263292    -6.255574    15.901399    -15.317222    30.308340    -9.725511    2.539302    -18.120045    46.305428    0.000000    0.000000    0.000000    -13.034595    -24.927231    -18.027784    13.544673    29.862143    -15.443763    -3.939530    1.621902    -14.574575    0.000000    0.000000    0.000000    
-8.621450    156.230194    -113.062096    -2.941705    -1.539228    47.672504    -1.140040    -0.883638    -3.553652    -5.025764    2.654666    -1.066431    5.624575    4.240886    -21.337317    15.335943    -3.217340    -20.345789    6.089605    9.833707    -18.042002    -35.849155    23.467510    -44.435417    -9.226954    -6.422683    -118.341110    4.669958    -21.672205    -4.471316    -14.569898    -4.117611    -7.973181    18.951202    -21.725822    48.738102    -14.472583    -13.269213    49.863178    0.971049    -6.326035    31.989168    23.183630    -6.236928    15.689811    -15.029050    30.044146    -10.214293    2.465785    -18.274210    46.185558    0.000000    0.000000    0.000000    -12.820940    -24.935644    -17.898758    13.400260    29.501785    -15.354418    -3.982049    1.844419    -14.608072    0.000000    0.000000    0.000000    
-8.728636    156.386765    -112.984573    -3.022326    -1.495028    47.597919    -1.080784    -0.868769    -3.543027    -5.076052    2.609285    -1.063855    5.657121    4.253664    -21.323730    15.324502    -3.266741    -20.329802    6.093155    9.818065    -18.049269    -35.794960    23.514828    -44.438328    -9.187566    -6.489129    -118.367302    4.644199    -21.678549    -4.480227    -14.580853    -4.119956    -7.958570    19.000753    -21.767054    48.747948    -14.417651    -13.294550    49.895245    1.036776    -6.354328    31.969212    23.086493    -6.187908    15.534204    -14.830371    29.718521    -10.354774    2.584850    -18.179831    45.856617    0.000000    0.000000    0.000000    -12.604455    -24.918510    -17.749071    13.248412    29.159245    -15.296878    -3.982522    2.055507    -14.618121    0.000000    0.000000    0.000000    
-8.837799    156.545563    -112.928810    -3.123565    -1.403532    47.516750    -1.042636    -0.910652    -3.524388    -5.134117    2.596499    -1.056885    5.673175    4.200169    -21.304392    15.348060    -3.254644    -20.311790    6.123348    9.806746    -18.046122    -35.759094    23.543709    -44.478714    -9.104295    -6.602375    -118.348160    4.350264    -21.638525    -4.565743    -14.555611    -4.093088    -7.984218    18.984211    -21.744873    48.800488    -14.506185    -13.387005    49.822823    1.125394    -6.392792    31.987238    22.947578    -6.194520    15.344407    -14.593125    29.396725    -10.495702    2.504199    -18.260416    45.507298    0.000000    0.000000    0.000000    -12.418031    -24.938112    -17.663561    13.078312    28.793283    -15.230137    -4.004536    2.289962    -14.584478    0.000000    0.000000    0.000000    
